<?xml version="1.0" encoding="utf-8"?>
<!-- Generator: Adobe Illustrator 22.1.0, SVG Export Plug-In . SVG Version: 6.00 Build 0)  -->
<svg version="1.1" id="Layer_1" xmlns="http://www.w3.org/2000/svg" xmlns:xlink="http://www.w3.org/1999/xlink" x="0px" y="0px"
	 viewBox="0 0 196.3 27.3" style="enable-background:new 0 0 196.3 27.3;" xml:space="preserve">
<style type="text/css">
	.st0{fill:#CECECE;}
</style>
<title>Untitled-4</title>
<path class="st0" d="M36.4,8.5C32.4,6,26,4.6,18.5,4.6S4.6,6,0.6,8.5C0.2,8.8,0,9.2,0,9.7v7.9c0,0.5,0.2,0.9,0.6,1.2
	c4,2.5,10.4,3.9,17.9,3.9s13.9-1.4,17.9-3.9c0.4-0.3,0.6-0.7,0.6-1.2V9.7C37.1,9.2,36.8,8.8,36.4,8.5 M27.8,15.4
	c-4.2,1.7-8.5,3-12.9,4c-0.4,0.2-0.9,0.1-1.3-0.1c-0.1-0.1-0.1-0.2-0.2-0.3c-0.1-0.2-0.1-0.3,0.3-0.4c1.3-0.4,6.7-2.5,6.7-3
	c0-0.8-5.3-3.9-14.4-3.2c-0.6,0-0.7-0.1-0.1-0.4c1.4-0.7,2.8-1.1,4.3-1.4c6.9-0.8,14.1,1.3,17.6,4C28.4,14.9,28.3,15.2,27.8,15.4
	 M31.3,10.1c-1,0.4-2,0.8-3.1,1.1c-0.5,0.2-1.1,0.1-1.6-0.1c-1.9-0.7-3.9-1.2-5.8-1.7c-0.5-0.1-0.7-0.3,0-0.4
	c2.5-0.6,8.2-0.6,10.5,0.5C31.7,9.7,31.8,9.9,31.3,10.1"/>
<path class="st0" d="M99.4,19.9c-5.3,0-7.2-1.2-7.2-6.3s1.9-6.3,7.2-6.3s7.2,1.2,7.2,6.3S104.7,19.9,99.4,19.9 M99.4,17.3
	c3.8,0,4.4-0.3,4.4-3.7s-0.6-3.7-4.4-3.7S95,10.1,95,13.5S95.6,17.3,99.4,17.3 M66.5,19.8c4.1,0,6.7-0.9,6.7-4.5V8.2
	c0.1-0.3-0.1-0.6-0.4-0.6h-0.1H71c-0.3,0-0.6,0.2-0.6,0.5v0.1v6.7c0,1.9-1,2.4-3.9,2.4s-3.9-0.5-3.9-2.4V8.2
	c0.1-0.3-0.1-0.6-0.4-0.6h-0.1h-1.7c-0.3,0-0.6,0.2-0.6,0.5v0.1v7.2C59.8,19,62.4,19.9,66.5,19.8 M88.9,19.1
	c0.5-0.2,0.5-0.2,0.5-0.5v-4.8c0.1-0.3-0.1-0.6-0.4-0.6h-0.1h-1.7c-0.3,0-0.6,0.2-0.6,0.5v0.1V17c-1.2,0.2-2.4,0.3-3.6,0.3
	c-3.1,0-4.3-0.5-4.3-3.7s1.2-3.8,4.2-3.8c1.7,0,3.5,0.2,5.2,0.7c0.5,0.1,0.7,0.1,0.7-0.3V8.5c0-0.4,0-0.4-0.4-0.6
	c-1.8-0.5-3.6-0.7-5.4-0.7c-4.5,0-7,1.4-7,6.4s2.5,6.3,7.1,6.3C85.1,19.9,87,19.7,88.9,19.1 M50.4,14.8c3.7,0.1,4.1,0.2,4.1,1.3
	s-0.5,1.1-4.1,1.1c-1.9,0-3.8-0.2-5.7-0.7c-0.5-0.1-0.7-0.1-0.7,0.3v1.7c0,0.4,0,0.4,0.4,0.6c1.9,0.5,3.9,0.7,5.9,0.7
	c5.3,0,6.8-0.7,6.8-3.7s-1.4-3.7-6.7-3.9c-3.7-0.1-4.1-0.2-4.1-1.3s0.5-1.1,4.1-1.1c1.8,0,3.7,0.2,5.5,0.7c0.5,0.1,0.7,0.1,0.7-0.3
	V8.5c0-0.4,0-0.4-0.4-0.6c-1.9-0.5-3.8-0.7-5.7-0.7c-5.3,0-6.8,0.7-6.8,3.7S45,14.6,50.4,14.8 M109.4,19.2c-0.1,0.3,0.1,0.6,0.4,0.6
	h0.1h1.6c0.3,0,0.6-0.2,0.6-0.5v-0.1v-7.4c0.1-0.3-0.1-0.6-0.4-0.6h-0.1H110c-0.3,0-0.6,0.2-0.6,0.5v0.1V19.2L109.4,19.2z
	 M109.4,9.2c-0.1,0.3,0.1,0.6,0.4,0.6h0.1h1.6c0.3,0,0.6-0.2,0.6-0.5V9.2v-1c0.1-0.3-0.1-0.6-0.4-0.6h-0.1H110
	c-0.3,0-0.6,0.2-0.6,0.5v0.1V9.2z"/>
<path class="st0" d="M113.3,19c0-0.5,0.4-0.9,0.9-0.9s0.9,0.4,0.9,0.9l0,0c0,0.5-0.4,0.9-0.9,0.9C113.7,19.9,113.3,19.5,113.3,19
	L113.3,19 M115,19c0-0.7-0.2-0.8-0.7-0.8s-0.7,0.1-0.7,0.8s0.2,0.8,0.7,0.8S115,19.7,115,19 M113.9,18.5h0.5c0.2,0,0.3,0.1,0.3,0.2
	v0.1c0,0.1,0,0.3-0.2,0.3l0.3,0.4h-0.2l-0.3-0.4H114v0.4h-0.2L113.9,18.5L113.9,18.5z M114.3,19c0.1,0,0.2,0,0.2-0.2
	s-0.1-0.2-0.2-0.2H114V19H114.3L114.3,19z"/>
<path class="st0" d="M136.3,10.6c-0.4,0-0.8,0.3-0.9,0.7c0,0.1,0,0.1,0,0.2v4.4c-0.1,0.4,0.2,0.8,0.6,0.9c0.1,0,0.2,0,0.2,0h5.2v1.6
	h-5.7c-0.9,0.2-1.8-0.5-2-1.4c0-0.1,0-0.2,0-0.4v-5.7c-0.1-1,0.7-1.8,1.7-1.9c0.1,0,0.2,0,0.3,0h5.7v1.6
	C141.5,10.6,136.3,10.6,136.3,10.6z"/>
<path class="st0" d="M144.3,16c0,0.4,0.3,0.8,0.7,0.9c0.1,0,0.2,0,0.2,0h3.3c0.4,0.1,0.8-0.2,0.9-0.6c0-0.1,0-0.2,0-0.2V9h1.6v7.4
	c0.2,0.9-0.5,1.8-1.4,2c-0.1,0-0.3,0-0.4,0h-4.8c-1,0.1-1.8-0.7-1.9-1.7c0-0.1,0-0.2,0-0.3V9h1.6L144.3,16L144.3,16z"/>
<path class="st0" d="M158.2,12.9c1-0.1,1.9,0.6,2,1.5c0,0.1,0,0.2,0,0.3v1.9c0,0.9-0.7,1.8-1.6,1.8c-0.1,0-0.2,0-0.4,0h-5.8v-1.6
	h5.3c0.4,0,0.8-0.3,0.9-0.7c0-0.1,0-0.2,0-0.2v-0.6c0.1-0.4-0.2-0.8-0.6-0.9c-0.1,0-0.2,0-0.2,0h-3.4c-1,0.1-1.9-0.6-2-1.5
	c0-0.1,0-0.2,0-0.3v-1.8c0-0.9,0.7-1.8,1.6-1.8c0.1,0,0.2,0,0.4,0h5.8v1.6h-5.3c-0.4,0-0.8,0.3-0.9,0.7c0,0.1,0,0.2,0,0.2v0.4
	c-0.1,0.4,0.2,0.8,0.6,0.9c0.1,0,0.2,0,0.2,0L158.2,12.9L158.2,12.9z"/>
<polygon class="st0" points="165.8,10.6 165.8,18.4 164.1,18.4 164.1,10.6 161.3,10.6 161.3,9.1 168.5,9.1 168.5,10.6 "/>
<path class="st0" d="M178.4,16.6c0,0.9-0.7,1.8-1.6,1.8c-0.1,0-0.2,0-0.4,0h-4.8c-1,0.1-1.9-0.6-2-1.5c0-0.1,0-0.2,0-0.3v-5.7
	c-0.1-1,0.7-1.8,1.7-1.9c0.1,0,0.2,0,0.3,0h4.8c1-0.1,1.9,0.6,2,1.5c0,0.1,0,0.2,0,0.3V16.6z M171.3,15.9c-0.1,0.4,0.2,0.8,0.7,0.9
	c0.1,0,0.2,0,0.3,0h3.7c0.4,0.1,0.8-0.3,0.9-0.7c0-0.1,0-0.2,0-0.2v-4.4c0.1-0.4-0.2-0.8-0.6-0.9c-0.1,0-0.2,0-0.2,0h-3.7
	c-0.4-0.1-0.8,0.2-0.9,0.7c0,0.1,0,0.2,0,0.2v4.4H171.3z"/>
<path class="st0" d="M188.3,9.9c0.2-0.6,0.7-0.9,1.3-0.9c0.6-0.1,1.2,0.4,1.2,1v0.1v8.4h-1.6V12l-3,5.7c-0.4,0.7-0.6,0.9-1,0.9
	c-0.5,0-0.9-0.4-1-0.9l-3-5.7v6.4h-1.6V10c0-0.6,0.5-1.1,1.1-1.1h0.1c0.6,0,1.1,0.4,1.3,0.9l3.1,6L188.3,9.9z"/>
<path class="st0" d="M191.7,22.2H133c-2.6,0-4.6-2.1-4.6-4.6V9.9c0-2.6,2.1-4.6,4.6-4.6h58.7c2.6,0,4.6,2.1,4.6,4.7v7.7
	C196.3,20.2,194.2,22.2,191.7,22.2 M133,5.7c-2.3,0-4.1,1.9-4.1,4.1v7.7c0,2.3,1.9,4.1,4.1,4.1h58.7c2.3,0,4.1-1.9,4.1-4.1V9.9
	c0-2.3-1.9-4.1-4.1-4.1L133,5.7L133,5.7z"/>
<rect x="121" class="st0" width="0.5" height="27.3"/>
</svg>
